<svg width="39" height="40" viewBox="0 0 39 40" fill="none" xmlns="http://www.w3.org/2000/svg">
<path d="M38.8412 7.27877C38.8412 5.87304 37.696 4.72948 36.2882 4.72948H26.4767C23.8712 -1.57844 14.9201 -1.57455 12.3173 4.72948H2.55758C1.14977 4.72948 0.00455604 5.87304 0.00455604 7.27877C0.00528084 9.08823 0.00455604 29.0218 0 30.1259C0 31.5337 1.14563 32.6793 2.55343 32.6793H15.5182V35.731H13.9186C12.4023 35.731 11.1684 36.9649 11.1684 38.4812V39.5759C11.1684 39.8103 11.3581 40 11.5925 40H27.2507C27.4851 40 27.6748 39.8103 27.6748 39.5759V38.4812C27.6748 36.9649 26.441 35.731 24.9247 35.731H23.3251V32.6793H36.2882C37.6935 32.6793 38.837 31.5337 38.837 30.1259V27.2666C38.8523 27.2576 38.8348 7.29332 38.8412 7.27877ZM26.3258 9.60358C27.8336 9.43864 27.8349 11.7278 26.3258 11.5639V9.60358ZM12.044 12.3459C11.9364 13.282 11.8722 14.232 11.8678 15.185C11.7888 15.806 12.2593 16.3853 12.8935 16.3804C12.8935 16.3804 16.8187 16.3804 16.8187 16.3804C16.906 16.4367 16.9951 16.4847 17.0831 16.5381L17.039 17.7921C16.5376 17.4846 15.9068 17.4187 15.3657 17.6627L11.9599 19.1513C10.95 19.6171 10.2501 20.5655 10.0323 21.7764L9.1116 26.822H3.16849V7.89342H11.7425V8.93273C10.2998 9.62047 10.4911 11.9296 12.044 12.3459ZM17.9665 18.4412L17.8676 18.3715L17.919 16.9061C17.915 17.0076 19.007 17.1374 19.1046 17.1453C19.7135 17.1952 20.3367 17.1382 20.9235 16.9663C20.9365 17.2976 20.9637 18.04 20.9758 18.3772C20.8204 18.4889 19.6126 19.3316 19.4254 19.4627L17.9665 18.4412ZM18.8501 20.1023C18.2671 21.0327 17.6493 22.0056 17.0635 22.9411L15.4565 18.5516L15.7128 18.441C16.2855 18.1324 16.9037 18.7516 17.3465 19.0425C17.3465 19.0424 18.8501 20.1023 18.8501 20.1023ZM21.4767 19.0641C21.7319 18.9096 22.3107 18.4049 22.6148 18.3786C22.8677 18.3299 23.1694 18.4411 23.399 18.5553C22.8901 19.9906 22.3794 21.4234 21.8701 22.8582C21.5378 22.3604 20.367 20.6193 20.0153 20.0942L21.4767 19.0641ZM21.2438 15.9292C18.8917 17.0652 16.0262 15.5205 15.2696 13.1128L16.9086 14.4284C16.984 14.4884 17.0776 14.5216 17.1741 14.5216H18.2403C18.6721 15.4821 20.4242 15.2402 20.4275 14.1496C20.4285 13.1204 18.8185 12.8203 18.3033 13.6733H17.3232L14.9723 11.7861C14.9505 11.8131 14.9658 9.87531 14.9615 9.83801C16.4087 10.0749 17.9401 9.88331 19.2781 9.27407C19.3683 9.23325 20.1508 8.75909 20.1877 8.78404C21.323 9.55453 22.7292 9.91111 24.0942 9.76884V11.228C24.0942 13.1687 22.969 15.1229 21.2438 15.9292ZM19.0027 14.1496C19.0027 14.1165 19.105 14.0159 19.291 14.0159C19.4769 14.0159 19.5792 14.1165 19.5792 14.1496C19.5792 14.1832 19.4769 14.2838 19.291 14.2838C19.105 14.2838 19.0027 14.1832 19.0027 14.1496ZM23.3283 15.4442C23.9737 14.7469 24.4475 13.8905 24.7039 12.9754C25.1546 13.2066 25.7231 13.0898 26.0565 12.71C26.1573 13.5758 26.197 14.4618 26.2024 15.3454C26.2015 15.4453 26.1162 15.5282 26.0181 15.5314H23.2559C23.2819 15.5043 23.3028 15.4719 23.3283 15.4442ZM25.4776 11.9726C25.4829 12.3251 24.9472 12.3309 24.9437 11.9826C24.9435 11.4829 24.9418 9.81129 24.9425 9.28386C24.897 8.96292 25.215 8.80911 25.4051 9.00715C25.4494 9.05427 25.4774 9.11702 25.4776 9.1865V11.9726ZM25.1595 8.0754C24.6784 8.09482 24.2575 8.44511 24.1305 8.90884C22.8302 9.08171 21.5024 8.72505 20.4511 7.92946C20.3047 7.82024 20.1032 7.81662 19.9532 7.92076C18.5138 8.91958 16.6572 9.31647 14.939 8.96375C14.8254 8.40817 14.2681 8.00737 13.7061 8.07939C14.7317 1.37655 24.1684 1.38949 25.2091 8.07038C25.1921 8.07041 25.1763 8.07465 25.1595 8.0754ZM13.8469 8.91935C14.0577 8.92184 14.1487 9.1324 14.0897 9.31448C14.0937 9.69289 14.0748 11.3782 14.1131 11.7233C14.1124 11.724 14.1131 11.9817 14.1128 11.9826C14.1128 11.9882 14.1101 11.9927 14.1098 11.9982C14.0876 12.3328 13.5811 12.3186 13.5777 11.981C13.5777 11.981 13.5777 9.1865 13.5777 9.1865C13.5787 9.03928 13.7045 8.92396 13.8469 8.91935ZM13.5788 13.0592C13.8285 13.1288 14.0971 13.09 14.3324 12.9854C14.5519 13.8403 15.1467 14.8746 15.7803 15.5314H12.8931C12.7924 15.5314 12.7133 15.4502 12.7133 15.3462C12.7156 14.4024 12.765 13.4662 12.8778 12.5434C13.0427 12.7914 13.2879 12.9895 13.5788 13.0592ZM10.8686 21.9247C11.0067 21.0861 11.563 20.2388 12.3012 19.9287L14.6773 18.8912L16.5644 24.0457C16.6718 24.3696 17.1492 24.4217 17.3219 24.1252C17.974 23.0805 18.7923 21.7898 19.4388 20.7574C20.047 21.6606 21.0419 23.1448 21.634 24.0337C21.8133 24.3218 22.2843 24.2625 22.3866 23.9396C22.9819 22.2574 23.5812 20.5798 24.1774 18.8978L26.5375 19.9291C27.2738 20.2598 27.829 21.0573 27.9768 21.9288C28.165 22.9575 28.6735 25.7581 28.8667 26.822H9.97496L10.8686 21.9247ZM28.8122 21.7747C28.6006 20.6364 27.9209 19.626 26.8771 19.1513L24.1539 17.9605C23.4114 17.5895 22.563 17.2964 21.8042 17.799C21.7937 17.5374 21.7707 16.9049 21.761 16.6368C21.9153 16.555 22.065 16.4674 22.2151 16.3804H26.0202C26.7153 16.3823 27.1457 15.7191 27.0467 15.0706C27.041 14.1708 26.9768 13.2726 26.8743 12.3789C28.682 12.0185 28.7689 9.38673 27.0515 8.82981V7.89342H35.6772V26.822H29.7313C29.5045 25.5804 29.0346 23.002 28.8122 21.7747ZM12.5924 7.63034C12.5664 3.9824 15.6184 0.800343 19.397 0.824184C23.6239 0.882144 26.5885 4.55656 26.2024 8.68699C25.2693 0.00977246 13.5079 0.0375745 12.7442 8.75533H12.5924C12.5924 8.75533 12.5924 7.63042 12.5924 7.63034ZM12.5137 9.60358H12.7295V11.5639C11.3673 11.7525 11.1648 9.67994 12.5137 9.60358ZM0.852801 7.27877C0.852801 6.34065 1.61738 5.57773 2.55758 5.57773H12.0212C11.901 6.06028 11.8129 6.54868 11.7682 7.04518H2.74437C2.50994 7.04518 2.32025 7.23487 2.32025 7.4693V26.822H0.852801V7.27877ZM24.9247 36.5793C25.9734 36.5793 26.8266 37.4325 26.8266 38.4812V39.1518H12.0167V38.4812C12.0167 37.4325 12.8699 36.5793 13.9186 36.5793H24.9247ZM16.3664 35.731V32.6793H22.4768V35.731H16.3664ZM37.9888 30.1259C37.9888 31.0661 37.2259 31.8311 36.2882 31.8311H2.55343C1.61324 31.8311 0.848245 31.0661 0.848245 30.1259V27.6702C10.9037 27.6836 27.9331 27.6836 37.9888 27.6702V30.1259ZM37.9929 26.822H36.5255V7.4693C36.5255 7.23487 36.3358 7.04518 36.1014 7.04518H27.0266C26.9842 6.54968 26.8904 6.06059 26.774 5.57773H36.2882C37.2284 5.57773 37.9929 6.34065 37.9929 7.27877V26.822Z" fill="white"/>
</svg>
