<svg width="21" height="21" viewBox="0 0 21 21" fill="none" xmlns="http://www.w3.org/2000/svg">
<path d="M20.619 11.6148L19.5402 9.52468C19.3721 9.19792 19.0398 8.99489 18.6725 8.99489C18.576 8.99489 18.4798 9.00922 18.3875 9.03753C17.7002 9.24745 17.083 9.49819 16.527 9.76454C16.6094 9.29154 16.6522 8.81055 16.6522 8.32612C16.6522 3.73505 12.9172 0 8.3263 0C3.73523 0 0 3.73505 0 8.32612C0 12.9172 3.73523 16.6522 8.3263 16.6522C8.88639 16.6522 9.4405 16.5962 9.98317 16.4866C9.7513 16.9772 9.5421 17.4995 9.37391 18.0507C9.34579 18.1426 9.33146 18.2382 9.33109 18.3367C9.33146 18.7037 9.5343 19.0361 9.85998 19.2038L11.9505 20.2828C12.0886 20.3543 12.2433 20.392 12.3983 20.392C12.3981 20.392 12.3985 20.392 12.3983 20.392C12.7633 20.392 13.0952 20.1911 13.2641 19.8676L14.4452 17.6071C14.6172 17.2764 14.5884 16.8839 14.3701 16.5829L13.2122 14.9839C13.8639 14.1539 14.4088 13.6549 14.4255 13.6395C14.4465 13.6213 14.4656 13.6021 14.4746 13.5909C14.491 13.5758 14.5058 13.5607 14.5162 13.5488C14.5287 13.5346 14.7907 13.2429 15.28 12.8464L16.9197 14.0336C17.2138 14.2469 17.6224 14.2765 17.9441 14.1079L20.2033 12.9279C20.6785 12.6804 20.865 12.0913 20.619 11.6148ZM8.32648 15.7452C4.23563 15.7452 0.907363 12.4171 0.907363 8.3263C0.907363 4.23545 4.23563 0.907363 8.32648 0.907363C12.4171 0.907363 15.7452 4.23545 15.7452 8.3263C15.7452 9.00886 15.6485 9.68253 15.466 10.3333C14.944 10.6465 14.5064 10.9595 14.1511 11.2418L13.1648 10.6592C12.9493 10.532 12.6712 10.6033 12.5436 10.8191C12.4162 11.0346 12.4877 11.3129 12.7035 11.4403L13.429 11.869C13.2679 12.0234 13.1532 12.145 13.087 12.2183C12.9453 12.3487 12.4636 12.8069 11.8765 13.5237L11.4107 12.724C11.2846 12.5073 11.0067 12.4342 10.7906 12.5603C10.5741 12.6864 10.5006 12.964 10.6269 13.1804L11.2797 14.3014C11.0399 14.635 10.796 15.0028 10.5601 15.4014C9.83984 15.6286 9.08978 15.7452 8.32648 15.7452Z" fill="#595959"/>
<path d="M13.2256 8.32627C13.2256 8.57684 13.4286 8.77986 13.6792 8.77986H15.0173C15.2678 8.77986 15.4709 8.57684 15.4709 8.32627C15.4709 8.07571 15.2678 7.87268 15.0173 7.87268H13.6792C13.4286 7.87268 13.2256 8.07571 13.2256 8.32627Z" fill="#595959"/>
<path d="M8.32664 13.2249C8.07607 13.2249 7.87305 13.4279 7.87305 13.6784V15.0167C7.87305 15.2673 8.07607 15.4703 8.32664 15.4703C8.5772 15.4703 8.78023 15.2673 8.78023 15.0167V13.6784C8.78023 13.4281 8.57702 13.2249 8.32664 13.2249Z" fill="#595959"/>
<path d="M3.42692 8.32627C3.42692 8.07571 3.22389 7.87268 2.97332 7.87268H1.63523C1.38467 7.87268 1.18164 8.07571 1.18164 8.32627C1.18164 8.57684 1.38467 8.77986 1.63523 8.77986H2.97332C3.22371 8.77986 3.42692 8.57684 3.42692 8.32627Z" fill="#595959"/>
<path d="M5.83389 12.5436C5.61889 12.4164 5.3402 12.4877 5.21265 12.7033L4.5319 13.8552C4.40453 14.0708 4.47584 14.3491 4.69175 14.4765C4.76396 14.5193 4.84361 14.5396 4.92217 14.5396C5.07712 14.5396 5.22843 14.46 5.31298 14.3166L5.99373 13.1647C6.1211 12.9491 6.0498 12.671 5.83389 12.5436Z" fill="#595959"/>
<path d="M3.94961 5.21254L2.79767 4.53179C2.58267 4.4046 2.30416 4.4759 2.17643 4.69145C2.04906 4.907 2.12037 5.18532 2.33628 5.31269L3.48822 5.99344C3.56043 6.03626 3.64008 6.05658 3.71864 6.05658C3.87359 6.05658 4.02491 5.97693 4.10945 5.83359C4.23682 5.61823 4.16534 5.34009 3.94961 5.21254Z" fill="#595959"/>
<path d="M12.9531 6.08741C13.0307 6.08741 13.1091 6.06764 13.181 6.02572L14.3371 5.35278C14.5535 5.22668 14.627 4.94908 14.5007 4.73263C14.3748 4.51599 14.0965 4.44269 13.8806 4.56879L12.7245 5.24174C12.508 5.36784 12.4345 5.64543 12.5608 5.86189C12.6448 6.00667 12.7969 6.08741 12.9531 6.08741Z" fill="#595959"/>
<path d="M8.32664 1.18225C8.07607 1.18225 7.87305 1.38528 7.87305 1.63584V2.97412C7.87305 3.22468 8.07607 3.42771 8.32664 3.42771C8.5772 3.42771 8.78023 3.22468 8.78023 2.97412V1.63584C8.78023 1.38528 8.57702 1.18225 8.32664 1.18225Z" fill="#595959"/>
<path d="M10.8196 4.10919C10.892 4.15201 10.9715 4.17233 11.0501 4.17233C11.205 4.17233 11.3563 4.09268 11.4409 3.94934L12.1214 2.79722C12.2488 2.58168 12.1773 2.30335 11.9616 2.17599C11.746 2.04898 11.4679 2.1201 11.3404 2.33583L10.6598 3.48795C10.5324 3.70368 10.6039 3.98182 10.8196 4.10919Z" fill="#595959"/>
<path d="M5.24176 3.92859C5.32595 4.07338 5.47799 4.15412 5.63403 4.15412C5.71168 4.15412 5.79006 4.13416 5.86191 4.09243C6.07837 3.96633 6.15185 3.68873 6.02557 3.47228L5.35244 2.31617C5.22652 2.09935 4.9482 2.02677 4.73229 2.15233C4.51584 2.27843 4.44235 2.55602 4.56863 2.77248L5.24176 3.92859Z" fill="#595959"/>
<path d="M3.47257 10.6269L2.31627 11.3001C2.09982 11.4262 2.02634 11.7038 2.15262 11.9202C2.2368 12.0648 2.38885 12.1457 2.54488 12.1457C2.62254 12.1457 2.70092 12.126 2.77277 12.0841L3.92906 11.4109C4.14552 11.2848 4.219 11.0072 4.09272 10.7908C3.96662 10.5741 3.68866 10.501 3.47257 10.6269Z" fill="#595959"/>
<path d="M8.32717 5.18018C8.07661 5.18018 7.87358 5.3832 7.87358 5.63377V8.1042L5.91951 9.62065C5.72174 9.77433 5.68582 10.0592 5.83949 10.2571C5.92876 10.3723 6.06266 10.4326 6.19819 10.4326C6.29526 10.4326 6.39324 10.4016 6.47597 10.3373L8.60531 8.6848C8.71581 8.5988 8.78076 8.46653 8.78076 8.32646V5.63377C8.78076 5.3832 8.57755 5.18018 8.32717 5.18018Z" fill="#595959"/>
</svg>
