<svg width="25" height="22" viewBox="0 0 25 22" fill="none" xmlns="http://www.w3.org/2000/svg">
<path d="M8.2029 8.24999C9.29767 8.24999 10.3476 7.8154 11.1217 7.04181C11.8959 6.26822 12.3308 5.21901 12.3308 4.125C12.3308 3.03098 11.8959 1.98177 11.1217 1.20818C10.3476 0.434597 9.29767 0 8.2029 0C7.10812 0 6.05818 0.434597 5.28406 1.20818C4.50993 1.98177 4.07503 3.03098 4.07503 4.125C4.07503 5.21901 4.50993 6.26822 5.28406 7.04181C6.05818 7.8154 7.10812 8.24999 8.2029 8.24999ZM18.5226 9.62499C19.4349 9.62499 20.3098 9.26283 20.9549 8.61817C21.6 7.97352 21.9624 7.09918 21.9624 6.18749C21.9624 5.27581 21.6 4.40147 20.9549 3.75682C20.3098 3.11216 19.4349 2.75 18.5226 2.75C17.6102 2.75 16.7353 3.11216 16.0902 3.75682C15.4451 4.40147 15.0827 5.27581 15.0827 6.18749C15.0827 7.09918 15.4451 7.97352 16.0902 8.61817C16.7353 9.26283 17.6102 9.62499 18.5226 9.62499ZM0.793382 19.8385C0.523607 19.6705 0.306923 19.4296 0.168378 19.1437C0.0298334 18.8578 -0.0249142 18.5385 0.0104639 18.2229C0.264129 16.2306 1.2361 14.3991 2.74423 13.0716C4.25236 11.7441 6.19314 11.0118 8.2029 11.0118C10.2127 11.0118 12.1534 11.7441 13.6616 13.0716C15.1697 14.3991 16.1417 16.2306 16.3953 18.2229C16.4751 18.865 16.1587 19.4879 15.611 19.8371C13.4002 21.2529 10.8287 22.0036 8.2029 22C5.57676 22.0043 3.00474 21.254 0.793382 19.8385ZM18.5226 19.25H18.3767C18.473 18.8416 18.4978 18.4099 18.4427 17.9671C18.2076 16.0769 17.4511 14.2893 16.2577 12.804C17.0257 12.502 17.8463 12.3564 18.6713 12.3758C19.4963 12.3951 20.3092 12.579 21.0621 12.9167C21.8151 13.2543 22.4929 13.7389 23.0558 14.342C23.6187 14.9451 24.0553 15.6544 24.3401 16.4285C24.4276 16.6756 24.426 16.9454 24.3355 17.1915C24.2451 17.4375 24.0715 17.6442 23.8447 17.776C22.2386 18.7437 20.398 19.2534 18.5226 19.25Z" fill="white"/>
</svg>
