<svg width="23" height="22" viewBox="0 0 23 22" fill="none" xmlns="http://www.w3.org/2000/svg">
<path d="M8.5615 11.7222H1.22307C0.826197 11.7222 0.5 11.3958 0.5 11V1.22222C0.5 0.82647 0.826197 0.5 1.22307 0.5H8.5615C8.95838 0.5 9.28457 0.82647 9.28457 1.22222V11C9.28457 11.3958 8.95838 11.7222 8.5615 11.7222ZM8.5615 21.5H1.22307C0.826197 21.5 0.5 21.1735 0.5 20.7778V15.8889C0.5 15.4931 0.826197 15.1667 1.22307 15.1667H8.5615C8.95838 15.1667 9.28457 15.4931 9.28457 15.8889V20.7778C9.28457 21.1735 8.95838 21.5 8.5615 21.5ZM20.7922 21.5H13.4538C13.0569 21.5 12.7307 21.1735 12.7307 20.7778V11C12.7307 10.6042 13.0569 10.2778 13.4538 10.2778H20.7922C21.1891 10.2778 21.5153 10.6042 21.5153 11V20.7778C21.5153 21.1735 21.1891 21.5 20.7922 21.5ZM12.7307 6.11111V1.22222C12.7307 0.82647 13.0569 0.5 13.4538 0.5H20.7922C21.1891 0.5 21.5153 0.82647 21.5153 1.22222V6.11111C21.5153 6.50686 21.1891 6.83333 20.7922 6.83333H13.4538C13.0569 6.83333 12.7307 6.50686 12.7307 6.11111Z" fill="#595959" stroke="#595959"/>
</svg>
