<svg width="23" height="22" viewBox="0 0 23 22" fill="none" xmlns="http://www.w3.org/2000/svg">
<path id="Vector" d="M1.22307 12.2222H8.5615C9.23419 12.2222 9.78457 11.6722 9.78457 11V1.22222C9.78457 0.55 9.23419 0 8.5615 0H1.22307C0.550382 0 0 0.55 0 1.22222V11C0 11.6722 0.550382 12.2222 1.22307 12.2222ZM1.22307 22H8.5615C9.23419 22 9.78457 21.45 9.78457 20.7778V15.8889C9.78457 15.2167 9.23419 14.6667 8.5615 14.6667H1.22307C0.550382 14.6667 0 15.2167 0 15.8889V20.7778C0 21.45 0.550382 22 1.22307 22ZM13.4538 22H20.7922C21.4649 22 22.0153 21.45 22.0153 20.7778V11C22.0153 10.3278 21.4649 9.77778 20.7922 9.77778H13.4538C12.7811 9.77778 12.2307 10.3278 12.2307 11V20.7778C12.2307 21.45 12.7811 22 13.4538 22ZM12.2307 1.22222V6.11111C12.2307 6.78333 12.7811 7.33333 13.4538 7.33333H20.7922C21.4649 7.33333 22.0153 6.78333 22.0153 6.11111V1.22222C22.0153 0.55 21.4649 0 20.7922 0H13.4538C12.7811 0 12.2307 0.55 12.2307 1.22222Z" fill="white"/>
</svg>
