<svg width="12" height="12" viewBox="0 0 12 12" fill="none" xmlns="http://www.w3.org/2000/svg">
<path d="M10.1038 0L11.9998 1.89593L10.5544 3.34189L8.6585 1.44596L10.1038 0ZM3.15967 8.84009H5.0556L9.66081 4.23488L7.76488 2.33895L3.15967 6.94416V8.84009Z" fill="#595959"/>
<path d="M10.1116 10.7359H3.25974C3.24331 10.7359 3.22624 10.7422 3.20981 10.7422C3.18896 10.7422 3.1681 10.7366 3.14661 10.7359H1.26395V1.88824H5.5911L6.85505 0.62429H1.26395C0.566883 0.62429 0 1.19054 0 1.88824V10.7359C0 11.4336 0.566883 11.9999 1.26395 11.9999H10.1116C10.4469 11.9999 10.7683 11.8667 11.0054 11.6297C11.2424 11.3926 11.3756 11.0711 11.3756 10.7359V5.25794L10.1116 6.5219V10.7359Z" fill="#595959"/>
</svg>
