<svg width="91" height="86" viewBox="0 0 91 86" fill="none" xmlns="http://www.w3.org/2000/svg">
<path id="Vector" d="M49.3765 2.22502C47.807 -0.741673 42.926 -0.741673 41.3565 2.22502L0.530444 79.3408C0.162935 80.032 -0.0192596 80.8066 0.00161122 81.5891C0.022482 82.3717 0.245707 83.1355 0.649536 83.8061C1.05336 84.4767 1.62402 85.0312 2.30591 85.4157C2.9878 85.8002 3.75765 86.0015 4.54047 86H86.1925C86.9748 86.0016 87.7441 85.8005 88.4255 85.4162C89.1069 85.032 89.6772 84.4777 90.0806 83.8075C90.484 83.1373 90.7069 82.3739 90.7275 81.5919C90.748 80.8099 90.5656 80.0359 90.198 79.3454L49.3765 2.22502ZM49.9027 72.3913H40.8303V63.3189H49.9027V72.3913ZM40.8303 54.2464V31.5653H49.9027L49.9072 54.2464H40.8303Z" fill="#FA992A"/>
</svg>
