<svg width="18" height="22" viewBox="0 0 18 22" fill="none" xmlns="http://www.w3.org/2000/svg">
<path d="M17.6 4.4C17.6 2.0152 13.5707 0 8.8 0C4.0293 0 0 2.0152 0 4.4V6.6C0 8.9848 4.0293 11 8.8 11C13.5707 11 17.6 8.9848 17.6 6.6V4.4ZM8.8 18.7C4.0293 18.7 0 16.6848 0 14.3V17.6C0 19.9848 4.0293 22 8.8 22C13.5707 22 17.6 19.9848 17.6 17.6V14.3C17.6 16.6848 13.5707 18.7 8.8 18.7Z" fill="#595959"/>
<path d="M17.6 8.79999C17.6 11.1848 13.5707 13.2 8.8 13.2C4.0293 13.2 0 11.1848 0 8.79999V12.1C0 14.4848 4.0293 16.5 8.8 16.5C13.5707 16.5 17.6 14.4848 17.6 12.1V8.79999Z" fill="#595959"/>
</svg>
