<svg width="23" height="23" viewBox="0 0 23 23" fill="none" xmlns="http://www.w3.org/2000/svg">
<path d="M0.961914 0.749023H22.9619V22.749H0.961914V0.749023Z" fill="white" fill-opacity="0.01"/>
<path d="M5.47977 15.7627C3.82094 16.2604 2.79492 16.9479 2.79492 17.7072C2.79492 19.226 6.89898 20.4572 11.9616 20.4572C17.0242 20.4572 21.1283 19.226 21.1283 17.7072C21.1283 16.9479 20.1022 16.2604 18.4434 15.7627" stroke="white" stroke-linecap="round" stroke-linejoin="round"/>
<path d="M11.9613 16.7904C11.9613 16.7904 17.9196 12.8964 17.9196 8.39452C17.9196 5.18437 15.252 2.58203 11.9613 2.58203C8.67057 2.58203 6.00293 5.18437 6.00293 8.39452C6.00293 12.8964 11.9613 16.7904 11.9613 16.7904Z" stroke="white" stroke-linejoin="round"/>
<path d="M11.9616 10.8314C13.2272 10.8314 14.2533 9.80536 14.2533 8.53971C14.2533 7.27407 13.2272 6.24805 11.9616 6.24805C10.6959 6.24805 9.66992 7.27407 9.66992 8.53971C9.66992 9.80536 10.6959 10.8314 11.9616 10.8314Z" stroke="white" stroke-linejoin="round"/>
</svg>
