<svg width="34" height="34" viewBox="0 0 34 34" fill="none" xmlns="http://www.w3.org/2000/svg">
<g id="Group 259">
<rect id="Rectangle 167" width="34" height="34" rx="4" fill="#147DFA"/>
<path id="Vector" d="M20.31 24.1053C20.3101 24.5833 20.1296 25.0437 19.8046 25.3942C19.4795 25.7447 19.034 25.9594 18.5574 25.9953L18.4153 26H16.5205C16.0425 26.0002 15.5821 25.8196 15.2316 25.4946C14.8811 25.1695 14.6664 24.724 14.6305 24.2474L14.6258 24.1053H20.31ZM17.4679 8C19.1873 7.99997 20.8396 8.66779 22.0761 9.8626C23.3126 11.0574 24.0367 12.6858 24.0957 14.4042L24.0995 14.6316V18.1975L25.8256 21.6497C25.9009 21.8003 25.9386 21.967 25.9354 22.1353C25.9323 22.3037 25.8884 22.4688 25.8074 22.6165C25.7265 22.7642 25.611 22.8901 25.4708 22.9834C25.3305 23.0767 25.1698 23.1346 25.0023 23.1522L24.8934 23.1579H10.0424C9.87394 23.1579 9.70796 23.1171 9.55871 23.039C9.40945 22.9608 9.28137 22.8477 9.18544 22.7092C9.08951 22.5707 9.02858 22.411 9.00789 22.2438C8.9872 22.0766 9.00735 21.9069 9.06662 21.7492L9.1102 21.6497L10.8363 18.1975V14.6316C10.8363 12.8728 11.535 11.186 12.7787 9.94234C14.0223 8.69868 15.7091 8 17.4679 8Z" fill="white"/>
</g>
</svg>
