<svg width="16" height="16" viewBox="0 0 16 16" fill="none" xmlns="http://www.w3.org/2000/svg">
<path id="Vector" d="M5.74257 0C7.26559 0 8.72623 0.605018 9.80317 1.68196C10.8801 2.7589 11.4851 4.21954 11.4851 5.74257C11.4851 7.16495 10.9639 8.47249 10.1069 9.47965L10.3455 9.71819H11.0434L15.4608 14.1355L14.1355 15.4608L9.71819 11.0434V10.3455L9.47965 10.1069C8.47249 10.9639 7.16495 11.4851 5.74257 11.4851C4.21954 11.4851 2.7589 10.8801 1.68196 9.80317C0.605018 8.72623 0 7.26559 0 5.74257C0 4.21954 0.605018 2.7589 1.68196 1.68196C2.7589 0.605018 4.21954 0 5.74257 0ZM5.74257 1.76694C3.53389 1.76694 1.76694 3.53389 1.76694 5.74257C1.76694 7.95124 3.53389 9.71819 5.74257 9.71819C7.95124 9.71819 9.71819 7.95124 9.71819 5.74257C9.71819 3.53389 7.95124 1.76694 5.74257 1.76694Z" fill="white"/>
</svg>
