<svg width="23" height="23" viewBox="0 0 23 23" fill="none" xmlns="http://www.w3.org/2000/svg">
<path id="Vector" d="M11.409 3.08839C16.979 1.18953 19.764 0.240105 21.262 1.73805C22.7599 3.23599 21.8104 6.021 19.9117 11.591L18.6186 15.3841C17.1603 19.6618 16.4312 21.8006 15.2291 21.9776C14.9061 22.0252 14.5716 21.9966 14.2518 21.894C13.0628 21.5122 12.4342 19.2571 11.177 14.7469C10.8981 13.7464 10.7587 13.2462 10.4411 12.8641C10.349 12.7533 10.2468 12.6511 10.1359 12.5589C9.75386 12.2413 9.25359 12.1019 8.25323 11.8231C3.74296 10.5659 1.48783 9.93726 1.10605 8.74816C1.0034 8.42846 0.974761 8.09396 1.02235 7.77082C1.19936 6.56888 3.33822 5.83974 7.61594 4.38145L11.409 3.08839Z" fill="white" stroke="white" stroke-width="1.5"/>
</svg>
