<svg width="21" height="22" viewBox="0 0 21 22" fill="none" xmlns="http://www.w3.org/2000/svg">
<path fill-rule="evenodd" clip-rule="evenodd" d="M12.4159 0.1672C12.0086 -4.91738e-08 11.4912 0 10.4576 0C9.42399 0 8.90773 -4.91738e-08 8.49935 0.1672C7.95717 0.389632 7.52559 0.818142 7.29952 1.3585C7.19604 1.6038 7.15642 1.8909 7.13991 2.3078C7.13257 2.60986 7.04825 2.90507 6.89493 3.16549C6.74161 3.42592 6.52435 3.64296 6.2637 3.7961C5.99813 3.94361 5.6996 4.02176 5.39577 4.0233C5.09194 4.02484 4.79264 3.94972 4.52559 3.8049C4.15353 3.6091 3.88384 3.5013 3.61746 3.4661C3.03466 3.38963 2.44523 3.54618 1.97732 3.9017C1.62728 4.1679 1.3686 4.6123 0.852339 5.5C0.33498 6.3877 0.0774008 6.831 0.0190603 7.2655C-0.0579932 7.8441 0.100517 8.4293 0.459366 8.8924C0.622279 9.1036 0.852339 9.2807 1.20789 9.5029C1.73295 9.8296 2.06978 10.3862 2.06978 11C2.06978 11.6138 1.73295 12.1704 1.20899 12.496C0.852339 12.7193 0.622279 12.8964 0.458265 13.1076C0.281133 13.3363 0.151118 13.5979 0.0757325 13.8771C0.000346621 14.1564 -0.0189152 14.4478 0.0190603 14.7345C0.0774008 15.1679 0.33498 15.6123 0.852339 16.5C1.3697 17.3877 1.62728 17.831 1.97732 18.0983C2.44404 18.4536 3.03405 18.6098 3.61746 18.5339C3.88384 18.4987 4.15353 18.3909 4.52559 18.1951C4.79277 18.0501 5.09228 17.9749 5.39633 17.9764C5.70037 17.9779 5.9991 18.0562 6.2648 18.2039C6.79977 18.5119 7.11679 19.0784 7.13991 19.6922C7.15642 20.1102 7.19604 20.3962 7.29952 20.6415C7.52407 21.1805 7.95557 21.6095 8.49935 21.8328C8.90663 22 9.42399 22 10.4576 22C11.4912 22 12.0086 22 12.4159 21.8328C12.958 21.6104 13.3896 21.1819 13.6157 20.6415C13.7192 20.3962 13.7588 20.1102 13.7753 19.6922C13.7973 19.0784 14.1154 18.5108 14.6515 18.2039C14.9171 18.0564 15.2156 17.9782 15.5194 17.9767C15.8233 17.9752 16.1226 18.0503 16.3896 18.1951C16.7617 18.3909 17.0314 18.4987 17.2978 18.5339C17.8812 18.6109 18.4712 18.4536 18.9379 18.0983C19.2879 17.8321 19.5466 17.3877 20.0629 16.5C20.5802 15.6123 20.8378 15.169 20.8962 14.7345C20.934 14.4477 20.9145 14.1563 20.839 13.877C20.7634 13.5978 20.6332 13.3363 20.4559 13.1076C20.2929 12.8964 20.0629 12.7193 19.7073 12.4971C19.1823 12.1704 18.8454 11.6138 18.8454 11C18.8454 10.3862 19.1823 9.8296 19.7062 9.504C20.0629 9.2807 20.2929 9.1036 20.457 8.8924C20.6341 8.66366 20.7641 8.40212 20.8395 8.12287C20.9149 7.84363 20.9341 7.55223 20.8962 7.2655C20.8378 6.8321 20.5802 6.3877 20.0629 5.5C19.5455 4.6123 19.2879 4.169 18.9379 3.9017C18.47 3.54618 17.8806 3.38963 17.2978 3.4661C17.0314 3.5013 16.7617 3.6091 16.3896 3.8049C16.1224 3.94991 15.8229 4.02514 15.5189 4.0236C15.2149 4.02206 14.9161 3.94381 14.6504 3.7961C14.39 3.64283 14.1729 3.42572 14.0198 3.16531C13.8667 2.90489 13.7825 2.60976 13.7753 2.3078C13.7588 1.8898 13.7192 1.6038 13.6157 1.3585C13.5038 1.09091 13.3403 0.847971 13.1344 0.643564C12.9285 0.439156 12.6844 0.277286 12.4159 0.1672ZM10.4576 14.3C12.2959 14.3 13.7852 12.8227 13.7852 11C13.7852 9.1773 12.2948 7.7 10.4576 7.7C8.61933 7.7 7.13 9.1773 7.13 11C7.13 12.8227 8.62043 14.3 10.4576 14.3Z" fill="white"/>
</svg>
