<svg width="16" height="16" viewBox="0 0 16 16" fill="none" xmlns="http://www.w3.org/2000/svg">
<path d="M7.61352 3.83622L8.66967 2.7801C9.85883 1.59092 11.4157 1.09766 13.0633 1.01706C13.7042 0.985706 14.0246 0.97003 14.2816 1.22699C14.5386 1.48393 14.5228 1.80436 14.4915 2.44523C14.4109 4.09287 13.9176 5.64974 12.7285 6.83888L11.6723 7.89503C10.8026 8.76477 10.5553 9.0121 10.7379 9.95549C10.9181 10.6762 11.0925 11.374 10.5685 11.898C9.93284 12.5337 9.35301 12.5337 8.71737 11.898L3.61052 6.79118C2.97489 6.15553 2.97487 5.57571 3.61052 4.94007C4.13453 4.41605 4.83239 4.59047 5.55304 4.77066C6.49645 4.95325 6.74378 4.70596 7.61352 3.83622Z" stroke="white" stroke-width="1.06638" stroke-linejoin="round"/>
<path d="M11.3066 4.19934H11.315" stroke="white" stroke-width="1.42185" stroke-linecap="round" stroke-linejoin="round"/>
<path d="M1 14.5079L4.55461 10.9532" stroke="white" stroke-width="1.06638" stroke-linecap="round"/>
<path d="M5.26465 14.5078L6.68649 13.0859" stroke="white" stroke-width="1.06638" stroke-linecap="round"/>
<path d="M1 10.2423L2.42185 8.82043" stroke="white" stroke-width="1.06638" stroke-linecap="round"/>
</svg>
