<svg width="17" height="17" viewBox="0 0 17 17" fill="none" xmlns="http://www.w3.org/2000/svg">
<path d="M4.97011 1.4541C5.30309 1.4541 5.6099 1.63469 5.77155 1.92585L6.89282 3.94563C7.03962 4.21009 7.04654 4.52996 6.91124 4.80052L5.83104 6.96096C5.83104 6.96096 6.14409 8.57035 7.45419 9.88045C8.76433 11.1906 10.3683 11.4982 10.3683 11.4982L12.5284 10.4182C12.7991 10.2828 13.1192 10.2898 13.3838 10.4369L15.4093 11.563C15.7002 11.7247 15.8806 12.0314 15.8806 12.3642V14.6895C15.8806 15.8737 14.7806 16.729 13.6586 16.3504C11.3541 15.5728 7.77694 14.0923 5.50966 11.825C3.24238 9.5577 1.76184 5.98054 0.984257 3.67609C0.605664 2.55404 1.46096 1.4541 2.64512 1.4541H4.97011Z" stroke="white" stroke-linejoin="round"/>
</svg>
