<svg width="40" height="40" viewBox="0 0 40 40" fill="none" xmlns="http://www.w3.org/2000/svg">
<path d="M38.0004 22.6666H37.3337V21.3332C37.3337 20.5999 36.7337 19.9999 36.0004 19.9999H35.3337V17.2065C35.6404 17.0932 35.9204 16.9199 36.147 16.6799C36.5203 16.2732 36.707 15.7199 36.6603 15.1732C35.887 6.52633 28.7269 0 20.0002 0C11.2735 0 4.1136 6.51993 3.34005 15.1732C3.29338 15.7199 3.48005 16.2732 3.85337 16.6799C4.08004 16.9265 4.36004 17.0999 4.66669 17.2065V19.9999H4.00002C3.26666 19.9999 2.66668 20.5999 2.66668 21.3332V22.6666H2.00001C0.900015 22.6666 0 23.5666 0 24.6666V29.9999C0 31.0999 0.900015 32 2.00001 32H2.66668V33.3333C2.66668 34.0667 3.26666 34.6666 4.00002 34.6666H6.6667C7.40006 34.6666 8.00004 34.0667 8.00004 33.3333H8.66671C9.76671 33.3333 10.6667 32.4333 10.6667 31.3333V23.3332C10.6667 22.2333 9.76671 21.3332 8.66671 21.3332H8.00004C8.00004 20.5999 7.40006 19.9999 6.6667 19.9999H6.00003V17.2199C6.72669 16.9666 7.26003 16.3199 7.34003 15.5066C7.94001 8.94652 13.38 3.99972 20.0001 3.99972C26.6203 3.99972 32.0668 8.94652 32.6603 15.5066C32.7336 16.3199 33.2736 16.9666 34.0003 17.2199V19.9999H33.3336C32.6002 19.9999 32.0003 20.5999 32.0003 21.3332H31.3336C30.2336 21.3332 29.3336 22.2333 29.3336 23.3332V31.3333C29.3336 32.4333 30.2336 33.3333 31.3336 33.3333H32.0003C32.0003 34.0667 32.6002 34.6666 33.3336 34.6666H33.9336C33.6269 36.1866 32.2802 37.3333 30.6669 37.3333H23.2134C22.9401 36.56 22.2068 36 21.3334 36H18.6668C17.5668 36 16.6668 36.9 16.6668 38C16.6668 39.1 17.5668 40 18.6668 40H21.3334C22.2001 40 22.9335 39.44 23.2134 38.6667H30.6669C33.0136 38.6667 34.9537 36.9267 35.2801 34.6666H36.0001C36.7334 34.6666 37.3334 34.0667 37.3334 33.3333V32H38.0001C39.1001 32 40.0001 31.0999 40.0001 29.9999V24.6666C40.0001 23.5666 39.1004 22.6666 38.0004 22.6666ZM2.66706 30.6666H2.00039C1.63372 30.6666 1.33372 30.3666 1.33372 29.9999V24.6666C1.33372 24.2999 1.63372 23.9999 2.00039 23.9999H2.66706V30.6666ZM8.00043 22.6666H8.6671C9.03377 22.6666 9.33377 22.9666 9.33377 23.3332V31.3333C9.33377 31.7 9.03377 32 8.6671 32H8.00043V22.6666ZM32.0006 32H31.3339C30.9672 32 30.6672 31.7 30.6672 31.3333V23.3332C30.6672 22.9666 30.9672 22.6666 31.3339 22.6666H32.0006V32ZM21.3338 38.6667H18.6672C18.3005 38.6667 18.0005 38.3667 18.0005 38C18.0005 37.6333 18.3005 37.3333 18.6672 37.3333H21.3338C21.7005 37.3333 22.0005 37.6333 22.0005 38C22.0005 38.3667 21.7005 38.6667 21.3338 38.6667ZM6.66709 21.3332V33.3265H4.00041V21.3264H6.66709V21.3332ZM33.9939 15.3863C33.3339 8.13295 27.3204 2.66647 20.0005 2.66647C12.6806 2.66647 6.66709 8.13295 6.00703 15.3863C5.9737 15.733 5.68703 15.9997 5.34036 15.9997C5.14703 15.9997 4.96036 15.9197 4.83369 15.7797C4.70702 15.6463 4.64702 15.473 4.66702 15.293C5.38037 7.33947 11.9669 1.33965 20.0007 1.33965C28.0344 1.33965 34.6209 7.33947 35.3343 15.293C35.3476 15.473 35.2876 15.6463 35.1676 15.7797C35.0343 15.9197 34.8543 15.9997 34.6609 15.9997C34.3143 15.9997 34.0273 15.733 33.9939 15.3863ZM36.0006 23.333V33.3333H33.3339V21.3332H36.0006V23.333ZM38.6673 29.9997C38.6673 30.3664 38.3673 30.6664 38.0006 30.6664H37.334V23.9997H38.0006C38.3673 23.9997 38.6673 24.2997 38.6673 24.6664V29.9997Z" fill="white"/>
</svg>
