<svg width="43" height="44" viewBox="0 0 43 44" fill="none" xmlns="http://www.w3.org/2000/svg">
<path fill-rule="evenodd" clip-rule="evenodd" d="M16.7921 21.8123C16.5581 22.2777 16.1946 25.5913 16.4126 25.9189C16.5001 26.0504 16.9685 25.9678 17.1281 25.9238C17.3731 25.8568 17.6063 25.7518 17.8193 25.6124C18.3173 25.2745 18.893 24.2601 19.3242 23.5493C19.6423 23.0237 19.6423 23.0237 20.1363 22.8365C20.5767 22.6693 21.0253 22.5001 21.4638 22.3681C22.0307 22.128 22.6618 22.0911 23.2524 22.2635C23.9818 22.571 24.6697 22.9708 25.2996 23.4535C26.0871 23.9815 27.2333 24.7769 28.3751 25.5723C29.5222 26.3731 30.3435 26.9499 30.9415 27.3704C31.4326 27.7015 31.9594 28.0524 32.5218 28.4229C32.5702 28.4313 32.62 28.4216 32.6619 28.3956L34.5622 27.5112L32.7441 23.5962L31.3379 20.6199C30.8264 19.5365 30.826 19.5365 30.6181 19.5561C29.5921 19.6533 28.5619 19.6979 27.5315 19.6896C25.5814 19.6343 24.3193 19.1029 22.6007 18.745C21.4038 18.4952 21.1529 18.5539 20.1184 19.2994C19.2875 19.8978 18.1722 20.6683 17.3147 21.2188C17.1045 21.3822 16.9269 21.5844 16.7911 21.8147L16.7921 21.8123ZM21.5 14.1476C23.3589 14.1428 25.1972 13.7541 26.9021 13.0051C26.7557 11.9505 26.2116 10.994 25.3837 10.3358C24.2714 9.46739 22.9058 8.99635 21.5005 8.99635C20.0953 8.99635 18.7296 9.46739 17.6173 10.3358C16.7905 10.9933 16.2469 11.9484 16.0999 13.0017C17.8083 13.7376 19.6431 14.127 21.5 14.1476ZM15.8847 14.3432C12.7379 14.9882 9.46941 14.5917 6.56268 13.2124C6.44609 13.1605 6.34684 13.0757 6.27692 12.968C6.20701 12.8603 6.16942 12.7345 6.1687 12.6057C6.1687 10.0576 8.04965 8.07228 10.371 7.26563C9.72124 6.73415 9.25037 6.01206 9.02318 5.19876C8.796 4.38546 8.82368 3.52094 9.1024 2.7242C9.38113 1.92746 9.8972 1.23769 10.5796 0.749824C11.2619 0.261962 12.0771 0 12.9127 0C13.7484 0 14.5635 0.261962 15.2459 0.749824C15.9283 1.23769 16.4444 1.92746 16.7231 2.7242C17.0018 3.52094 17.0295 4.38546 16.8023 5.19876C16.5751 6.01206 16.1043 6.73415 15.4545 7.26563C16.3108 7.55792 17.1021 8.01717 17.7836 8.61739C18.1594 8.40528 18.5534 8.22776 18.9607 8.08695C18.3111 7.5554 17.8403 6.8333 17.6132 6.02002C17.3862 5.20675 17.4139 4.34228 17.6927 3.54562C17.9715 2.74895 18.4875 2.05925 19.1699 1.57145C19.8522 1.08364 20.6673 0.821716 21.5029 0.821716C22.3385 0.821716 23.1536 1.08364 23.836 1.57145C24.5183 2.05925 25.0344 2.74895 25.3132 3.54562C25.5919 4.34228 25.6197 5.20675 25.3926 6.02002C25.1655 6.8333 24.6948 7.5554 24.0452 8.08695C24.4525 8.22792 24.8464 8.4056 25.2223 8.61788C25.904 8.01792 26.6952 7.55871 27.5513 7.26612C26.9018 6.73463 26.4311 6.0126 26.2041 5.19943C25.9771 4.38625 26.0048 3.5219 26.2836 2.72534C26.5623 1.92878 27.0783 1.23918 27.7606 0.751437C28.4429 0.263697 29.2578 0.00180432 30.0933 0.00180432C30.9289 0.00180432 31.7438 0.263697 32.4261 0.751437C33.1084 1.23918 33.6244 1.92878 33.9031 2.72534C34.1819 3.5219 34.2096 4.38625 33.9826 5.19943C33.7555 6.0126 33.2849 6.73463 32.6354 7.26612C34.9557 8.07277 36.8371 10.0581 36.8371 12.6062C36.8371 12.7442 36.7947 12.8789 36.7159 12.9916C36.637 13.1043 36.5255 13.1894 36.3968 13.2354C34.9127 13.926 33.3303 14.3756 31.7077 14.5676C30.1875 14.7371 28.6502 14.6602 27.154 14.3397C25.3607 15.0881 23.4399 15.4741 21.5 15.4759C19.5748 15.4579 17.67 15.0743 15.8847 14.3451V14.3432ZM16.6659 9.4084C16.1099 9.87493 15.6543 10.4517 15.3271 11.1032C14.9999 11.7546 14.8082 12.467 14.7637 13.1962C12.3003 13.5268 9.79437 13.1757 7.51258 12.1804C7.65923 11.1274 8.20213 10.1724 9.02807 9.51448C10.1188 8.6642 11.4525 8.19429 12.8295 8.17516C14.2065 8.15604 15.5526 8.58873 16.6659 9.4084ZM14.8362 2.14069C14.4554 1.75544 13.9701 1.49306 13.4417 1.38675C12.9134 1.28043 12.3658 1.33495 11.8681 1.54341C11.3704 1.75186 10.945 2.1049 10.6457 2.55786C10.3465 3.01082 10.1867 3.54337 10.1867 4.08815C10.1867 4.63293 10.3465 5.16547 10.6457 5.61843C10.945 6.0714 11.3704 6.42443 11.8681 6.63288C12.3658 6.84134 12.9134 6.89586 13.4417 6.78954C13.9701 6.68323 14.4554 6.42086 14.8362 6.0356C15.3469 5.51908 15.6338 4.81857 15.6338 4.08815C15.6338 3.35773 15.3469 2.65722 14.8362 2.14069ZM28.2392 13.1855C28.1932 12.4581 28.0007 11.7479 27.6736 11.0984C27.3465 10.4489 26.8917 9.87379 26.337 9.4084C27.4504 8.58873 28.7964 8.15604 30.1734 8.17516C31.5504 8.19429 32.8842 8.6642 33.9749 9.51448C34.8028 10.1728 35.3469 11.1295 35.4933 12.1843C33.2153 13.1935 30.7042 13.5402 28.2421 13.1855H28.2392ZM32.0161 2.14069C31.6352 1.75544 31.1499 1.49306 30.6216 1.38675C30.0933 1.28043 29.5457 1.33495 29.048 1.54341C28.5503 1.75186 28.1249 2.1049 27.8256 2.55786C27.5263 3.01082 27.3666 3.54337 27.3666 4.08815C27.3666 4.63293 27.5263 5.16547 27.8256 5.61843C28.1249 6.0714 28.5503 6.42443 29.048 6.63288C29.5457 6.84134 30.0933 6.89586 30.6216 6.78954C31.1499 6.68323 31.6352 6.42086 32.0161 6.0356C32.5268 5.51908 32.8136 4.81857 32.8136 4.08815C32.8136 3.35773 32.5268 2.65722 32.0161 2.14069ZM23.4264 2.9625C23.0455 2.57725 22.5602 2.31487 22.0319 2.20856C21.5036 2.10224 20.956 2.15676 20.4583 2.36522C19.9606 2.57367 19.5352 2.92671 19.2359 3.37967C18.9366 3.83263 18.7769 4.36518 18.7769 4.90996C18.7769 5.45474 18.9366 5.98728 19.2359 6.44024C19.5352 6.8932 19.9606 7.24624 20.4583 7.45469C20.956 7.66315 21.5036 7.71767 22.0319 7.61135C22.5602 7.50504 23.0455 7.24266 23.4264 6.85741C23.9371 6.34089 24.2239 5.64038 24.2239 4.90996C24.2239 4.17954 23.9371 3.47903 23.4264 2.9625ZM7.38448 15.6382L1.56713 24.7612L6.437 27.9389L12.2543 18.814L7.38448 15.6382ZM0.104338 24.6004L6.63423 14.3593C6.72851 14.2108 6.87724 14.1062 7.04775 14.0685C7.21825 14.0308 7.39657 14.0631 7.54352 14.1584L13.5189 18.0557C13.6579 18.146 13.7581 18.2858 13.7999 18.4473C13.8416 18.6089 13.8217 18.7804 13.7442 18.9279C14.7497 19.1943 15.7745 19.5361 16.838 19.9091C17.3881 19.4813 18.019 19.078 18.557 18.7358C18.877 18.5319 19.1608 18.3515 19.3542 18.2122C20.6951 17.2461 21.2878 17.1112 22.8613 17.4388C24.4778 17.7761 25.8024 18.308 27.5668 18.3579C28.4645 18.3659 29.362 18.3284 30.256 18.2454L30.1864 18.0948C30.1133 17.9356 30.1056 17.7536 30.165 17.5887C30.2243 17.4238 30.3459 17.2893 30.503 17.2148L36.9372 14.1549C37.0153 14.118 37.0999 14.0969 37.186 14.093C37.2722 14.0891 37.3583 14.1024 37.4393 14.1321C37.5204 14.1618 37.5949 14.2075 37.6585 14.2663C37.7222 14.3252 37.7737 14.3961 37.8102 14.4752L42.9382 25.5014C43.012 25.6609 43.02 25.8436 42.9606 26.0091C42.9013 26.1747 42.7793 26.3096 42.6216 26.3843L36.1874 29.4442C36.1093 29.4812 36.0248 29.5022 35.9386 29.5062C35.8525 29.5101 35.7664 29.4968 35.6853 29.467C35.6042 29.4373 35.5298 29.3917 35.4661 29.3328C35.4025 29.274 35.3509 29.203 35.3144 29.124L35.1244 28.7153L33.8453 29.3103C35.5257 30.6869 35.2859 33.1964 33.3619 33.8896C34.5443 35.4574 33.9178 37.5807 32.0528 38.0119C32.1341 38.1735 32.2004 38.3424 32.251 38.5164C32.8838 40.7115 30.7486 42.3785 28.6332 41.4878C28.6743 43.5773 26.3215 44.7261 24.4092 43.4922L19.5664 40.4152L18.3095 42.0011C18.0213 42.3616 17.6336 42.6273 17.1957 42.7645C16.7579 42.9016 16.2896 42.904 15.8503 42.7713C15.4111 42.6386 15.0208 42.3769 14.729 42.0193C14.4372 41.6618 14.2572 41.2246 14.2117 40.7633C13.8891 40.7984 13.5629 40.7645 13.2541 40.6638C12.9454 40.5632 12.661 40.398 12.4194 40.1791C12.1778 39.9601 11.9844 39.6922 11.8518 39.3928C11.7192 39.0934 11.6503 38.7692 11.6496 38.4411C11.3234 38.4599 10.9969 38.4087 10.6917 38.2907C10.3865 38.1728 10.1094 37.9908 9.87875 37.7568C9.64806 37.5228 9.46897 37.2421 9.35326 36.9331C9.23755 36.6241 9.18785 36.2938 9.20741 35.9639C8.77273 35.9585 8.3483 35.8296 7.9825 35.5921C7.6167 35.3545 7.32425 35.0178 7.13847 34.6203C6.95269 34.2228 6.88105 33.7806 6.93173 33.3439C6.9824 32.9073 7.15335 32.4938 7.42509 32.1507L8.45185 30.8537L7.14664 29.2653C7.04528 29.3952 6.89964 29.4823 6.73818 29.5094C6.57672 29.5365 6.41107 29.5018 6.2736 29.4119L0.302536 25.5205C0.229819 25.4733 0.167005 25.4121 0.117685 25.3404C0.0683642 25.2687 0.0335044 25.1878 0.0150977 25.1024C-0.00330894 25.0171 -0.00490158 24.9289 0.0104108 24.8429C0.0257232 24.7569 0.0576403 24.6749 0.104338 24.6014V24.6004ZM12.992 20.1105C13.8762 20.3178 14.8502 20.6297 15.7784 20.947C15.7329 21.0111 15.691 21.0777 15.6527 21.1464C15.2326 21.8499 14.887 25.3508 15.1166 26.2015C15.5343 27.7488 17.4698 27.451 18.5488 26.7177C19.3223 26.1927 19.9739 25.0198 20.4447 24.243C20.5269 24.1071 20.5269 24.1071 20.5927 24.0822C20.7009 24.0411 20.8629 23.9795 21.1621 23.8719C21.6256 23.6829 22.111 23.5545 22.6065 23.4896C23.4201 23.824 24.3347 24.4566 26.1698 25.7258C27.1786 26.4234 28.4587 27.3088 30.1468 28.4381L30.5818 28.7456C31.065 29.1161 31.5757 29.4484 32.1094 29.7395C32.3489 29.8963 32.5949 30.0571 32.8476 30.222C33.2055 30.4485 33.4715 30.7971 33.5973 31.2047C33.956 32.4474 32.5885 33.1631 31.4447 32.4171L28.6743 30.6082C28.5276 30.518 28.3518 30.4893 28.1844 30.5283C28.017 30.5674 27.8714 30.671 27.7786 30.8172C27.6859 30.9634 27.6533 31.1405 27.6879 31.3106C27.7224 31.4807 27.8214 31.6305 27.9637 31.7278L31.8387 34.2548C32.1967 34.4811 32.4626 34.8298 32.588 35.2374C32.9481 36.4861 31.5728 37.193 30.4358 36.4499L26.5608 33.9229C26.4882 33.8731 26.4064 33.8386 26.3204 33.8214C26.2343 33.8041 26.1457 33.8044 26.0598 33.8222C25.9738 33.8401 25.8923 33.8752 25.82 33.9254C25.7476 33.9756 25.6859 34.0399 25.6385 34.1145C25.5912 34.1892 25.559 34.2727 25.544 34.3601C25.529 34.4475 25.5314 34.5371 25.5511 34.6236C25.5709 34.71 25.6075 34.7916 25.6588 34.8635C25.7102 34.9355 25.7753 34.9963 25.8502 35.0424L30.2343 37.9014C30.5923 38.1276 30.8581 38.4763 30.9835 38.884C31.3432 40.1316 29.9684 40.8395 28.8314 40.0964L25.5752 37.9723C25.4283 37.8769 25.25 37.8444 25.0795 37.882C24.9089 37.9196 24.7602 38.0242 24.6659 38.1727C24.5716 38.3212 24.5395 38.5015 24.5766 38.674C24.6138 38.8465 24.7172 38.9969 24.8641 39.0923L26.5077 40.1634C26.8661 40.3895 27.1323 40.7382 27.2579 41.1461C27.6151 42.3844 26.2539 43.1084 25.1101 42.3683L20.3911 39.3705L21.7325 37.6765C21.9857 37.3565 22.1516 36.9751 22.2137 36.5702C22.2759 36.1653 22.2321 35.751 22.0867 35.3685C21.9414 34.9861 21.6995 34.6487 21.3853 34.3901C21.071 34.1315 20.6952 33.9606 20.2954 33.8945C20.393 33.5578 20.4147 33.2033 20.3589 32.8571C20.3032 32.5108 20.1714 32.1816 19.9732 31.8936C19.775 31.6057 19.5155 31.3664 19.2138 31.1932C18.9121 31.0201 18.5758 30.9176 18.2298 30.8933C18.3025 30.4565 18.2516 30.0079 18.0829 29.5992C17.9142 29.1906 17.6346 28.8385 17.2763 28.5838C16.9181 28.329 16.4959 28.182 16.0586 28.1597C15.6212 28.1374 15.1866 28.2407 14.8048 28.4576C14.6585 28.0753 14.4154 27.7385 14.0999 27.4811C13.7844 27.2237 13.4075 27.0546 13.007 26.9908C12.6066 26.9271 12.1966 26.9708 11.8181 27.1178C11.4396 27.2647 11.1059 27.5096 10.8505 27.828L9.29249 29.7982C8.80135 29.2208 8.32858 28.6464 7.90849 28.0846L12.992 20.1105ZM31.655 18.1335L36.901 15.6402L41.4697 25.4667L36.2237 27.96L35.9612 27.3943C35.8418 27.0746 35.6383 26.6439 35.3526 26.0387L33.9459 23.0609L31.655 18.1335ZM14.5873 39.2262C14.625 39.169 14.6656 39.1128 14.7086 39.0581L18.1302 34.7334C18.212 34.6311 18.3021 34.5357 18.3994 34.4484L18.8548 33.8735C18.9781 33.7168 19.0531 33.5269 19.0703 33.3274C19.0875 33.1279 19.0462 32.9278 18.9516 32.7519C18.8569 32.576 18.7131 32.4322 18.5382 32.3385C18.3632 32.2448 18.1648 32.2053 17.9678 32.225C17.8302 32.2396 17.6972 32.2832 17.5773 32.3528C17.4573 32.4224 17.3531 32.5166 17.2712 32.6293L14.4925 36.1409C14.4748 36.1668 14.4553 36.1913 14.434 36.2142L13.1854 37.7914C13.0621 37.948 12.9871 38.1379 12.9699 38.3374C12.9527 38.5369 12.994 38.7371 13.0886 38.913C13.1833 39.0888 13.3271 39.2326 13.502 39.3263C13.677 39.42 13.8754 39.4595 14.0724 39.4399C14.2605 39.4193 14.4389 39.345 14.5868 39.2257L14.5873 39.2262ZM15.8872 41.3172C16.0934 41.4845 16.3569 41.5623 16.6197 41.5333C16.8826 41.5043 17.1233 41.371 17.289 41.1627L17.3181 41.1285L18.8819 39.1529C18.8951 39.1346 18.9093 39.1169 18.9244 39.1001L20.7068 36.8483C20.8302 36.6917 20.9052 36.5018 20.9224 36.3023C20.9397 36.1028 20.8984 35.9026 20.8037 35.7268C20.709 35.5509 20.5652 35.4072 20.3902 35.3135C20.2152 35.2199 20.0167 35.1805 19.8197 35.2003C19.6424 35.22 19.4736 35.2875 19.331 35.3959L15.761 39.9097C15.7152 39.9671 15.6669 40.0216 15.616 40.0735C15.5321 40.2481 15.4986 40.4431 15.5193 40.6362C15.5469 40.9031 15.6782 41.148 15.8843 41.3172H15.8872ZM10.2796 33.916L13.4571 29.8994C13.6083 29.6824 13.6695 29.4142 13.6273 29.1522C13.5852 28.8902 13.4432 28.6554 13.2317 28.4981C13.0203 28.3409 12.7563 28.2738 12.4965 28.3112C12.2366 28.3486 12.0017 28.4875 11.842 28.6982L9.86002 31.1993C9.83772 31.2342 9.81232 31.2669 9.78412 31.2971L8.45378 32.9808C8.33054 33.1374 8.2557 33.3273 8.23861 33.5267C8.22153 33.7261 8.26297 33.9262 8.35774 34.1019C8.45251 34.2777 8.59641 34.4212 8.77145 34.5147C8.94648 34.6081 9.14487 34.6473 9.3418 34.6273C9.82038 34.575 10.0118 34.2572 10.282 33.916H10.2796ZM10.9317 36.9256C11.1391 37.0763 11.3958 37.141 11.6489 37.1062C11.902 37.0715 12.1323 36.94 12.2925 36.7388C12.3017 36.7271 12.3114 36.7158 12.3211 36.7051L13.3846 35.3626C13.4021 35.337 13.4213 35.3127 13.4421 35.2898L16.7293 31.1343C16.852 30.9777 16.9266 30.788 16.9436 30.589C16.9607 30.3899 16.9195 30.1901 16.8252 30.0145C16.7308 29.8389 16.5876 29.6952 16.4131 29.6013C16.2387 29.5073 16.0409 29.4674 15.8441 29.4863C15.7066 29.5007 15.5736 29.5441 15.4536 29.6137C15.3336 29.6832 15.2294 29.7774 15.1475 29.8901L14.4529 30.7701L10.7408 35.4594C10.5755 35.6709 10.4991 35.9398 10.5281 36.2078C10.5572 36.4758 10.6893 36.7215 10.896 36.8918C10.909 36.9026 10.9221 36.9138 10.9342 36.9256H10.9317Z" fill="white"/>
</svg>
