<svg width="48" height="40" viewBox="0 0 48 40" fill="none" xmlns="http://www.w3.org/2000/svg">
<path d="M43.5052 23.5386H42.3294V21.1869C42.3294 19.3159 41.5861 17.5214 40.2631 16.1984C38.94 14.8753 37.1456 14.132 35.2745 14.132H25.868V8.77642C26.7646 8.25874 27.4654 7.45967 27.8616 6.50313C28.2578 5.54659 28.3273 4.48604 28.0593 3.48597C27.7914 2.4859 27.2009 1.6022 26.3795 0.971915C25.5581 0.341633 24.5517 0 23.5163 0C22.481 0 21.4746 0.341633 20.6532 0.971915C19.8318 1.6022 19.2413 2.4859 18.9733 3.48597C18.7054 4.48604 18.7749 5.54659 19.1711 6.50313C19.5673 7.45967 20.2681 8.25874 21.1647 8.77642V14.132H11.7582C9.88709 14.132 8.09265 14.8753 6.7696 16.1984C5.44655 17.5214 4.70327 19.3159 4.70327 21.1869V23.5386H3.52745C2.59191 23.5386 1.69469 23.9102 1.03317 24.5717C0.371641 25.2333 0 26.1305 0 27.066C0 28.0016 0.371641 28.8988 1.03317 29.5603C1.69469 30.2218 2.59191 30.5935 3.52745 30.5935H4.70327V32.9451C4.70327 34.8162 5.44655 36.6106 6.7696 37.9337C8.09265 39.2567 9.88709 40 11.7582 40H35.2745C37.1456 40 38.94 39.2567 40.2631 37.9337C41.5861 36.6106 42.3294 34.8162 42.3294 32.9451V30.5935H43.5052C44.4408 30.5935 45.338 30.2218 45.9995 29.5603C46.661 28.8988 47.0327 28.0016 47.0327 27.066C47.0327 26.1305 46.661 25.2333 45.9995 24.5717C45.338 23.9102 44.4408 23.5386 43.5052 23.5386ZM39.9778 32.9451C39.9764 34.1921 39.4804 35.3875 38.5987 36.2693C37.7169 37.151 36.5215 37.647 35.2745 37.6484H11.7582C10.5112 37.6469 9.31576 37.151 8.43404 36.2692C7.55231 35.3875 7.05633 34.192 7.0549 32.9451V21.1869C7.05631 19.94 7.55228 18.7445 8.43401 17.8628C9.31574 16.981 10.5112 16.4851 11.7582 16.4837H35.2745C36.5215 16.485 37.717 16.981 38.5987 17.8627C39.4804 18.7445 39.9764 19.94 39.9778 21.1869V32.9451ZM18.8131 27.066C18.8131 27.7637 18.6062 28.4457 18.2186 29.0258C17.831 29.6058 17.2801 30.058 16.6355 30.325C15.991 30.5919 15.2817 30.6618 14.5974 30.5257C13.9132 30.3896 13.2847 30.0536 12.7913 29.5603C12.298 29.067 11.9621 28.4384 11.8259 27.7542C11.6898 27.0699 11.7597 26.3607 12.0267 25.7161C12.2937 25.0716 12.7458 24.5206 13.3259 24.133C13.906 23.7454 14.588 23.5386 15.2856 23.5386C16.2212 23.5386 17.1184 23.9102 17.7799 24.5717C18.4414 25.2333 18.8131 26.1305 18.8131 27.066ZM35.2745 27.066C35.2745 27.7637 35.0676 28.4457 34.68 29.0258C34.2924 29.6058 33.7415 30.058 33.097 30.325C32.4524 30.5919 31.7431 30.6618 31.0589 30.5257C30.3746 30.3896 29.7461 30.0536 29.2528 29.5603C28.7594 29.067 28.4235 28.4384 28.2874 27.7542C28.1513 27.0699 28.2211 26.3607 28.4881 25.7161C28.7551 25.0716 29.2072 24.5206 29.7873 24.133C30.3674 23.7454 31.0494 23.5386 31.7471 23.5386C32.6826 23.5386 33.5798 23.9102 34.2413 24.5717C34.9029 25.2333 35.2745 26.1305 35.2745 27.066Z" fill="white"/>
</svg>
