<svg width="30" height="27" viewBox="0 0 30 27" fill="none" xmlns="http://www.w3.org/2000/svg">
<g id="Group 1000005553">
<path id="Vector" d="M22.4967 9.34869C22.5069 9.34864 22.5174 9.34863 22.5278 9.34863C25.9796 9.34863 28.7778 12.1519 28.7778 15.6101C28.7778 18.8331 26.3472 21.4872 23.2222 21.8333M22.4967 9.34869C22.5172 9.11953 22.5278 8.88744 22.5278 8.6529C22.5278 4.42632 19.1078 1 14.8889 1C10.8934 1 7.61435 4.07315 7.27836 7.98878M22.4967 9.34869C22.3546 10.9272 21.7342 12.3675 20.7817 13.5229M7.27836 7.98878C3.75553 8.32463 1 11.2971 1 14.9143C1 18.2801 3.38578 21.0878 6.55556 21.7324M7.27836 7.98878C7.49758 7.96788 7.71976 7.95718 7.94444 7.95718C9.50808 7.95718 10.951 8.47492 12.1118 9.34863" stroke="#0771EF" stroke-width="2" stroke-linecap="round" stroke-linejoin="round"/>
<path id="Vector_2" d="M14.8887 14.8889V26M14.8887 14.8889C13.9162 14.8889 12.0992 17.6587 11.4165 18.3611M14.8887 14.8889C15.8612 14.8889 17.6783 17.6587 18.3609 18.3611" stroke="#0771EF" stroke-width="2" stroke-linecap="round" stroke-linejoin="round"/>
</g>
</svg>
