<svg width="17" height="22" viewBox="0 0 17 22" fill="none" xmlns="http://www.w3.org/2000/svg">
<path d="M8.2029 8.24999C9.29767 8.24999 10.3476 7.8154 11.1217 7.04181C11.8959 6.26822 12.3308 5.21901 12.3308 4.125C12.3308 3.03098 11.8959 1.98177 11.1217 1.20818C10.3476 0.434597 9.29767 0 8.2029 0C7.10812 0 6.05818 0.434597 5.28406 1.20818C4.50993 1.98177 4.07503 3.03098 4.07503 4.125C4.07503 5.21901 4.50993 6.26822 5.28406 7.04181C6.05818 7.8154 7.10812 8.24999 8.2029 8.24999ZM0.793382 19.8385C0.523607 19.6705 0.306923 19.4296 0.168378 19.1437C0.0298334 18.8578 -0.0249142 18.5385 0.0104639 18.2229C0.264129 16.2306 1.2361 14.3991 2.74423 13.0716C4.25236 11.7441 6.19314 11.0118 8.2029 11.0118C10.2127 11.0118 12.1534 11.7441 13.6616 13.0716C15.1697 14.3991 16.1417 16.2306 16.3953 18.2229C16.4751 18.865 16.1587 19.4879 15.611 19.8371C13.4002 21.2529 10.8287 22.0036 8.2029 22C5.57676 22.0043 3.00474 21.254 0.793382 19.8385Z" fill="white"/>
</svg>
