<svg width="22" height="22" viewBox="0 0 22 22" fill="none" xmlns="http://www.w3.org/2000/svg">
<path d="M6.83101 12.5747L6.80785 12.6905H6.15943C5.46469 12.6905 4.88574 13.2694 4.88574 13.9642V16.3031C4.88574 16.6505 5.02469 16.9747 5.25627 17.2063C5.48785 17.4379 5.81206 17.5768 6.15943 17.5768H7.40995C7.68785 17.5768 7.94258 17.3452 7.94258 17.0442V13.7094C7.94258 12.8758 8.12785 12.0884 8.47522 11.3705C8.08153 11.2779 7.71101 11.1389 7.31732 10.9768C7.08574 11.4631 6.92364 12.0189 6.83101 12.5747Z" fill="white"/>
<path d="M20.6102 12.6905H19.9386L19.9155 12.5747C19.3597 9.3789 16.6039 7.06311 13.3618 7.06311C12.065 7.06311 10.8607 7.43364 9.8418 8.08206C10.0271 8.45258 10.1892 8.68416 10.305 8.82311C10.3744 8.91574 10.4439 9.00837 10.4902 9.12416C11.3239 8.59153 12.3197 8.29048 13.3618 8.29048C16.3723 8.26732 18.8039 10.7221 18.8039 13.7094V18.2715C18.8039 19.5452 17.7618 20.5642 16.5113 20.5642H15.2144L15.1913 20.4715C15.0986 20.1242 14.8207 19.9157 14.4965 19.9157H12.2965C11.8797 19.9157 11.5555 20.24 11.5555 20.6568V21.2589C11.5555 21.6757 11.8797 22 12.2965 22H14.4965C14.8207 22 15.1218 21.7684 15.1913 21.4442L15.2144 21.3515H16.5113C18.2018 21.3515 19.5913 19.9621 19.5913 18.2715V17.5768H20.6102C20.9576 17.5768 21.2818 17.4378 21.5134 17.2063C21.745 16.9747 21.8839 16.6505 21.8839 16.3031V13.9642C21.8607 13.2694 21.305 12.6905 20.6102 12.6905Z" fill="white"/>
<path d="M12.297 12.7831C12.297 12.181 11.8106 11.6947 11.2085 11.6947C10.6064 11.6947 10.1201 12.181 10.1201 12.7831C10.1201 13.3852 10.6064 13.8715 11.2085 13.8715C11.8106 13.8715 12.297 13.3852 12.297 12.7831Z" fill="white"/>
<path d="M16.6046 12.7831C16.6046 12.181 16.1183 11.6947 15.5162 11.6947C14.9141 11.6947 14.4277 12.181 14.4277 12.7831C14.4277 13.3852 14.9141 13.8715 15.5162 13.8715C16.1414 13.8715 16.6046 13.3852 16.6046 12.7831Z" fill="white"/>
<path d="M15.7007 16.4884C15.8628 16.28 15.8165 15.9789 15.5849 15.8168C15.3765 15.6547 15.0754 15.701 14.9133 15.9326C14.5428 16.4421 13.9638 16.72 13.3617 16.72C12.7596 16.72 12.1807 16.4189 11.8102 15.9326C11.648 15.7242 11.347 15.6778 11.1386 15.8168C10.9302 15.9789 10.8838 16.28 11.0228 16.4884C11.5554 17.2294 12.4354 17.6926 13.3617 17.6926C14.288 17.6926 15.168 17.2294 15.7007 16.4884Z" fill="white"/>
<path d="M4.77053 0C2.13053 0 0 2.13053 0 4.77053C0 7.41053 2.13053 9.54105 4.77053 9.54105C5.44211 9.54105 6.09053 9.40211 6.66947 9.14737C7.31789 9.58737 8.10526 9.98105 8.98526 10.1663C9.30947 10.2358 9.51789 9.86526 9.30947 9.61053C8.93895 9.14737 8.61474 8.49895 8.36 7.89684C9.10105 7.06316 9.54105 5.97474 9.54105 4.77053C9.51789 2.13053 7.38737 0 4.77053 0ZM8.05895 5.09474C8.05895 5.25684 7.94316 5.39579 7.78105 5.41895L7.34105 5.46526C7.29474 5.46526 7.24842 5.51158 7.22526 5.5579C7.17895 5.69684 7.13263 5.83579 7.06316 5.97474C7.04 6.02105 7.04 6.06737 7.08632 6.11368L7.36421 6.46105C7.45684 6.57684 7.45684 6.76211 7.34105 6.8779L6.87789 7.34105C6.76211 7.45684 6.57684 7.45684 6.46105 7.36421L6.11368 7.08632C6.06737 7.06316 5.99789 7.06316 5.97474 7.08632C5.83579 7.15579 5.69684 7.22526 5.55789 7.24842C5.51158 7.27158 5.46526 7.29474 5.46526 7.36421L5.41895 7.80421C5.39579 7.96632 5.25684 8.08211 5.09474 8.08211H4.42316C4.26105 8.08211 4.12211 7.96632 4.09895 7.80421L4.05263 7.36421C4.05263 7.31789 4.00632 7.27158 3.96 7.24842C3.82105 7.20211 3.68211 7.15579 3.54316 7.08632C3.52 7.06316 3.45053 7.06316 3.42737 7.08632L3.10316 7.36421C2.98737 7.45684 2.80211 7.45684 2.68632 7.34105L2.22316 6.8779C2.10737 6.76211 2.10737 6.57684 2.2 6.46105L2.47789 6.11368C2.50105 6.06737 2.52421 6.02105 2.50105 5.97474C2.43158 5.83579 2.38526 5.69684 2.33895 5.5579C2.31579 5.51158 2.29263 5.46526 2.22316 5.46526L1.78316 5.41895C1.62105 5.39579 1.50526 5.25684 1.50526 5.1179V4.44632C1.50526 4.28421 1.62105 4.14526 1.78316 4.12211L2.22316 4.07579C2.26947 4.07579 2.31579 4.02947 2.33895 3.98316C2.38526 3.84421 2.43158 3.70526 2.50105 3.56632C2.52421 3.52 2.52421 3.47368 2.47789 3.42737L2.2 3.08C2.10737 2.96421 2.10737 2.77895 2.22316 2.66316L2.68632 2.2C2.80211 2.08421 2.98737 2.08421 3.10316 2.17684L3.45053 2.45474C3.49684 2.47789 3.54316 2.50105 3.58947 2.47789C3.72842 2.40842 3.86737 2.36211 4.00632 2.31579C4.05263 2.29263 4.09895 2.26947 4.09895 2.2L4.14526 1.76C4.16842 1.59789 4.30737 1.48211 4.46947 1.48211H5.14105C5.30316 1.48211 5.44211 1.59789 5.46526 1.76L5.51158 2.2C5.51158 2.24632 5.55789 2.29263 5.60421 2.31579C5.74316 2.36211 5.88211 2.40842 6.02105 2.47789C6.06737 2.50105 6.11368 2.50105 6.16 2.45474L6.50737 2.17684C6.62316 2.08421 6.80842 2.08421 6.92421 2.2L7.38737 2.66316C7.50316 2.77895 7.50316 2.96421 7.41053 3.08L7.13263 3.42737C7.10947 3.47368 7.08632 3.52 7.10947 3.56632C7.17895 3.70526 7.24842 3.84421 7.27158 3.98316C7.29474 4.02947 7.3179 4.07579 7.38737 4.07579L7.82737 4.12211C7.98947 4.14526 8.10526 4.28421 8.10526 4.44632V5.09474H8.05895Z" fill="white"/>
<path d="M4.77005 3.33472C3.98269 3.33472 3.35742 3.95998 3.35742 4.74735C3.35742 5.53472 3.98269 6.15998 4.77005 6.15998C5.55742 6.15998 6.18269 5.53472 6.18269 4.74735C6.18269 3.95998 5.53426 3.33472 4.77005 3.33472Z" fill="white"/>
</svg>
