<svg width="21" height="20" viewBox="0 0 21 20" fill="none" xmlns="http://www.w3.org/2000/svg">
<path id="Vector" d="M18.5205 4.63374C15.5302 -0.00189593 9.40659 -1.37542 4.6708 1.50039C0.0494771 4.3762 -1.4385 10.6429 1.55177 15.2642L1.79499 15.6362L0.793467 19.3848L4.54203 18.3833L4.91403 18.6265C6.53078 19.4992 8.2906 20 10.0361 20C11.9104 20 13.7847 19.4992 15.4014 18.4977C20.0228 15.4931 21.3963 9.35521 18.5205 4.60512V4.63374ZM15.9022 14.277C15.4014 15.021 14.7719 15.5217 13.8991 15.6505C13.3984 15.6505 12.7689 15.8937 10.2793 14.9065C8.16183 13.905 6.40201 12.2739 5.15726 10.3997C4.41327 9.52691 4.02696 8.39661 3.9125 7.26632C3.9125 6.26479 4.2845 5.39203 4.91403 4.7625C5.15726 4.51928 5.41479 4.39051 5.65802 4.39051H6.28755C6.53078 4.39051 6.78831 4.39051 6.91708 4.89127C7.16031 5.5208 7.78984 7.02309 7.78984 7.15186C7.91861 7.28063 7.86138 8.23923 7.28908 8.78291C6.97431 9.1406 6.91708 9.15491 7.04585 9.41244C7.54661 10.1564 8.17614 10.9147 8.79136 11.5443C9.53536 12.1738 10.2937 12.6746 11.1664 13.0466C11.4096 13.1753 11.6672 13.1753 11.7959 12.9178C11.9247 12.6746 12.5399 12.045 12.7975 11.7875C13.0407 11.5443 13.1695 11.5443 13.427 11.6587L15.43 12.6602C15.6733 12.789 15.9308 12.9035 16.0596 13.0322C16.1883 13.4042 16.1883 13.905 15.9308 14.277H15.9022Z" fill="white"/>
</svg>
